<?xml version="1.0" encoding="UTF-8" standalone="no"?>
<!DOCTYPE svg PUBLIC "-//W3C//DTD SVG 1.1//EN" "http://www.w3.org/Graphics/SVG/1.1/DTD/svg11.dtd">
<svg viewBox="0 0 490 196" height="196.0pt" width="490.0pt" xmlns="http://www.w3.org/2000/svg" version="1.1">
<path d="M 0.00 0.00 L 490.00 0.00 L 490.00 196.00 L 0.00 196.00 L 0.00 0.00 Z" fill="#ffffff" />
<path d="M 429.13 0.00 C 423.87 20.46 418.37 40.87 413.05 61.32 C 437.22 44.53 461.28 27.55 485.48 10.81 C 465.95 32.67 446.12 54.29 426.52 76.09 C 447.43 72.80 468.31 69.35 489.22 66.08 C 470.46 75.81 451.63 85.40 432.86 95.13 C 448.65 100.02 464.47 104.76 480.24 109.70 C 463.82 111.52 447.39 113.29 430.97 115.12 C 443.48 126.06 456.01 136.97 468.48 147.95 C 452.73 142.87 437.01 137.72 421.27 132.61 C 428.28 147.76 435.35 162.89 442.33 178.05 C 429.97 166.96 417.72 155.73 405.37 144.63 C 405.69 161.33 406.08 178.03 406.37 194.73 C 399.52 179.52 392.83 164.24 386.03 149.02 C 379.58 164.38 373.32 179.81 366.79 195.14 C 366.69 179.69 366.70 164.23 366.62 148.78 C 379.65 140.03 394.27 132.57 409.97 130.34 C 421.60 128.57 433.19 130.31 444.15 134.38 C 422.98 118.69 393.59 111.36 368.06 119.50 C 372.37 106.37 374.55 92.82 373.08 79.00 C 371.76 66.70 367.52 55.67 360.07 45.78 C 363.35 54.76 363.79 63.18 361.61 72.49 C 357.85 88.55 347.80 103.27 337.55 115.93 C 322.00 114.65 306.45 113.31 290.90 111.94 C 306.59 106.69 322.30 101.50 338.00 96.28 C 323.55 88.16 309.03 80.17 294.59 72.05 C 311.03 73.69 327.45 75.44 343.89 77.10 C 333.93 63.74 323.90 50.45 313.96 37.08 C 328.33 45.35 342.63 53.73 356.99 62.03 C 353.26 45.75 349.42 29.50 345.74 13.21 C 355.56 26.63 365.21 40.17 375.00 53.61 C 378.17 37.20 381.17 20.76 384.35 4.36 C 387.87 20.69 391.29 37.05 394.81 53.38 C 405.74 36.44 416.58 19.45 427.48 2.50 C 428.03 1.66 428.58 0.83 429.13 0.00 Z" fill="#f06b24" />
<path d="M 392.38 77.42 C 396.86 75.87 401.95 76.50 405.89 79.13 C 411.33 82.69 414.02 89.47 412.57 95.81 C 411.01 102.97 404.35 108.33 396.98 108.06 C 389.27 107.93 382.69 101.67 381.94 94.03 C 381.11 86.85 385.53 79.76 392.38 77.42 Z" fill="#ffffff" />
<path d="M 14.50 128.01 C 17.57 128.00 20.64 128.00 23.71 128.01 C 28.29 150.01 32.94 172.00 37.60 193.98 C 34.50 194.00 31.40 194.00 28.30 193.99 C 27.19 188.66 26.03 183.34 24.87 178.01 C 21.00 177.99 17.13 177.99 13.27 178.03 C 12.16 183.35 10.95 188.65 9.87 193.98 C 6.77 194.00 3.68 194.00 0.58 194.00 C 5.21 172.00 9.83 150.00 14.50 128.01 Z" fill="#3f3d37" />
<path d="M 139.26 128.01 C 142.33 128.00 145.40 128.00 148.47 128.00 C 148.47 150.00 148.47 172.00 148.47 194.00 C 145.40 194.00 142.33 194.00 139.26 193.99 C 139.27 172.00 139.27 150.00 139.26 128.01 Z" fill="#3f3d37" />
<path d="M 190.26 128.01 C 193.33 128.00 196.40 128.00 199.47 128.00 C 199.45 136.11 199.50 144.22 199.44 152.32 C 201.46 150.35 203.55 147.89 206.37 147.14 C 209.43 146.59 212.57 146.96 215.08 148.91 C 217.60 150.73 218.52 153.88 219.25 156.75 C 220.36 161.99 220.30 167.66 220.29 173.00 C 220.25 178.53 219.58 184.88 216.74 189.75 C 214.95 192.82 211.57 194.85 207.97 194.50 C 204.28 194.22 202.02 191.88 199.44 189.57 C 199.45 191.05 199.46 192.52 199.47 194.00 C 196.40 194.00 193.33 194.00 190.26 193.99 C 190.27 172.00 190.27 150.00 190.26 128.01 Z" fill="#3f3d37" />
<path d="M 289.60 130.54 C 292.69 130.54 295.78 130.53 298.88 130.50 C 298.86 136.18 298.86 141.86 298.87 147.54 C 301.16 147.53 303.45 147.52 305.74 147.51 C 305.73 150.17 305.74 152.83 305.75 155.49 C 303.46 155.48 301.17 155.47 298.88 155.46 C 298.86 163.98 298.86 172.51 298.85 181.03 C 298.99 183.17 298.77 185.44 301.11 186.44 C 302.67 186.60 304.27 186.44 305.83 186.36 C 305.75 188.89 305.74 191.42 305.76 193.95 C 301.78 194.62 296.78 195.18 293.26 192.76 C 290.13 190.49 289.63 186.60 289.58 183.01 C 289.60 173.82 289.60 164.65 289.60 155.47 C 288.07 155.47 286.53 155.47 285.00 155.46 C 285.00 152.82 285.00 150.18 285.00 147.54 C 286.53 147.53 288.07 147.53 289.60 147.53 C 289.60 141.87 289.60 136.20 289.60 130.54 Z" fill="#3f3d37" />
<path d="M 19.09 142.40 C 20.66 151.59 22.18 160.79 23.70 169.99 C 20.61 170.00 17.53 170.00 14.44 169.99 C 16.03 160.80 17.47 151.59 19.09 142.40 Z" fill="#ffffff" />
<path d="M 51.94 147.01 C 56.22 146.74 60.57 147.04 63.72 150.30 C 67.12 153.95 67.52 159.24 67.71 163.97 C 64.65 164.00 61.60 164.00 58.55 164.00 C 58.30 161.66 58.26 158.91 57.22 156.77 C 55.82 154.11 51.32 154.29 50.29 157.29 C 48.43 162.39 49.16 168.63 49.01 174.00 C 49.23 177.42 48.78 182.17 50.85 185.07 C 52.64 187.66 56.88 186.68 57.84 183.86 C 58.46 181.85 58.37 179.59 58.48 177.51 C 61.56 177.53 64.65 177.53 67.73 177.53 C 67.42 183.06 67.03 188.64 62.21 192.22 C 56.92 195.72 47.93 195.45 43.82 190.19 C 40.18 185.32 40.09 177.82 39.89 172.01 C 39.93 166.01 39.89 158.96 42.43 153.42 C 44.09 149.64 47.88 147.30 51.94 147.01 Z" fill="#3f3d37" />
<path d="M 83.94 147.01 C 88.22 146.74 92.57 147.04 95.72 150.30 C 99.12 153.95 99.52 159.24 99.71 163.97 C 96.65 164.00 93.60 164.00 90.55 164.00 C 90.30 161.66 90.26 158.91 89.22 156.77 C 87.82 154.11 83.32 154.29 82.29 157.29 C 80.43 162.39 81.16 168.63 81.01 174.00 C 81.23 177.42 80.78 182.17 82.85 185.07 C 84.64 187.66 88.88 186.68 89.84 183.85 C 90.46 181.85 90.37 179.59 90.48 177.51 C 93.56 177.53 96.65 177.53 99.73 177.53 C 99.42 183.06 99.03 188.64 94.21 192.22 C 88.92 195.72 79.93 195.45 75.82 190.19 C 72.18 185.32 72.09 177.82 71.89 172.00 C 71.93 166.01 71.89 158.96 74.43 153.42 C 76.09 149.64 79.88 147.30 83.94 147.01 Z" fill="#3f3d37" />
<path d="M 117.99 146.94 C 121.91 146.78 125.65 147.65 128.12 150.92 C 132.36 156.06 132.11 164.69 132.31 170.99 C 126.12 171.01 119.93 170.99 113.74 171.00 C 113.82 175.20 113.25 180.24 114.86 184.18 C 116.08 187.19 120.09 187.38 121.94 184.89 C 123.02 182.74 122.90 179.88 123.14 177.53 C 126.22 177.53 129.30 177.53 132.39 177.54 C 132.06 180.87 131.95 184.40 130.53 187.48 C 127.65 195.45 115.30 196.61 109.55 191.44 C 105.56 187.52 104.76 180.29 104.57 175.00 C 104.52 168.07 103.97 159.51 107.10 153.15 C 109.05 148.94 113.49 146.84 117.99 146.94 Z" fill="#3f3d37" />
<path d="M 168.99 146.94 C 172.91 146.78 176.65 147.65 179.12 150.92 C 183.36 156.06 183.11 164.69 183.31 170.99 C 177.12 171.01 170.93 170.99 164.74 171.00 C 164.82 175.20 164.25 180.24 165.86 184.18 C 167.08 187.19 171.09 187.38 172.94 184.89 C 174.02 182.74 173.90 179.88 174.14 177.53 C 177.22 177.53 180.30 177.53 183.39 177.54 C 183.06 180.87 182.95 184.40 181.53 187.48 C 178.65 195.45 166.30 196.61 160.55 191.44 C 156.56 187.52 155.76 180.29 155.57 175.00 C 155.52 168.07 154.97 159.51 158.10 153.15 C 160.05 148.94 164.49 146.84 168.99 146.94 Z" fill="#3f3d37" />
<path d="M 249.00 146.87 C 249.00 150.52 248.99 154.16 249.02 157.81 C 245.91 157.08 242.10 156.04 239.43 158.42 C 237.40 160.19 237.50 162.51 237.44 164.98 C 237.49 174.65 237.46 184.32 237.47 194.00 C 234.40 194.00 231.33 194.00 228.26 193.99 C 228.26 178.50 228.29 163.01 228.25 147.51 C 231.33 147.53 234.41 147.53 237.49 147.52 C 237.48 149.66 237.45 151.80 237.41 153.94 C 240.25 149.63 243.43 146.50 249.00 146.87 Z" fill="#3f3d37" />
<path d="M 277.82 153.23 C 280.34 157.49 279.64 162.26 279.74 167.00 C 279.89 176.43 279.13 184.96 280.88 194.01 C 277.84 194.00 274.81 194.00 271.77 194.00 C 271.37 191.50 270.95 189.00 270.55 186.49 C 268.90 189.48 267.52 193.01 263.95 194.10 C 260.24 195.36 256.48 193.79 254.28 190.69 C 250.91 186.23 251.61 180.01 254.37 175.43 C 257.26 170.06 265.26 167.66 270.57 165.42 C 270.48 162.64 270.87 158.99 269.43 156.52 C 268.22 154.60 265.87 155.14 263.91 154.78 C 261.83 156.94 261.47 159.11 261.10 161.99 C 258.03 162.00 254.96 162.00 251.88 162.00 C 252.32 158.85 252.53 155.95 254.17 153.14 C 258.66 144.67 273.37 144.79 277.82 153.23 Z" fill="#3f3d37" />
<path d="M 324.99 146.94 C 328.91 146.78 332.65 147.65 335.12 150.92 C 339.36 156.06 339.11 164.69 339.31 170.99 C 333.12 171.01 326.93 170.99 320.74 171.00 C 320.82 175.20 320.25 180.24 321.86 184.18 C 323.08 187.19 327.09 187.38 328.94 184.89 C 330.02 182.74 329.90 179.88 330.14 177.53 C 333.22 177.53 336.30 177.53 339.39 177.54 C 339.06 180.87 338.95 184.40 337.52 187.48 C 334.65 195.45 322.30 196.61 316.55 191.44 C 312.56 187.52 311.76 180.29 311.57 175.00 C 311.52 168.07 310.97 159.51 314.10 153.15 C 316.05 148.94 320.49 146.84 324.99 146.94 Z" fill="#3f3d37" />
<path d="M 120.02 154.85 C 123.45 157.89 122.69 161.85 122.93 165.99 C 119.84 166.00 116.74 166.00 113.65 165.99 C 113.82 162.97 113.62 159.01 115.27 156.35 C 116.51 154.73 118.20 155.07 120.02 154.85 Z" fill="#ffffff" />
<path d="M 171.02 154.85 C 174.45 157.89 173.69 161.85 173.93 165.99 C 170.84 166.00 167.74 166.00 164.65 165.99 C 164.82 162.97 164.62 159.01 166.27 156.35 C 167.51 154.73 169.20 155.07 171.02 154.85 Z" fill="#ffffff" />
<path d="M 208.13 154.81 C 209.26 156.20 210.44 157.30 210.69 159.17 C 211.47 164.69 211.09 170.42 211.09 175.99 C 210.84 179.32 210.94 184.11 207.93 186.29 C 205.30 186.96 202.26 186.20 199.79 185.23 C 199.32 183.93 199.48 182.37 199.43 181.01 C 199.56 172.93 199.35 164.84 199.53 156.77 C 202.27 155.18 205.02 154.92 208.13 154.81 Z" fill="#ffffff" />
<path d="M 327.02 154.85 C 330.45 157.88 329.69 161.85 329.93 165.99 C 326.84 166.00 323.74 166.00 320.65 165.99 C 320.82 162.97 320.62 159.01 322.27 156.35 C 323.51 154.73 325.20 155.07 327.02 154.85 Z" fill="#ffffff" />
<path d="M 270.53 171.09 C 270.56 175.25 270.50 179.42 270.54 183.59 C 269.51 184.52 268.46 185.61 267.24 186.29 C 265.23 187.14 262.73 186.18 261.80 184.19 C 260.75 181.57 261.27 178.31 263.19 176.20 C 265.18 174.08 268.07 172.60 270.53 171.09 Z" fill="#ffffff" />
<path d="M 345.43 186.48 C 347.38 185.85 349.94 186.00 350.88 188.14 C 352.47 190.69 350.08 194.37 347.03 193.84 C 342.91 193.85 341.84 188.23 345.43 186.48 Z" fill="#3f3d37" />
<path d="M 349.34 188.00 C 348.18 188.36 346.93 188.41 345.60 188.17 C 345.55 186.75 348.75 187.16 349.34 188.00 Z" fill="#ffffff" />
<path d="M 349.34 188.00 C 350.65 188.62 350.84 191.77 349.12 191.66 C 348.74 190.59 348.81 189.37 349.34 188.00 Z" fill="#ffffff" />
<path d="M 344.36 189.27 L 345.17 189.24 L 345.60 189.97 L 345.24 190.73 L 344.42 190.77 L 343.99 190.04 L 344.36 189.27 Z" fill="#ffffff" />
<path d="M 347.21 189.56 C 347.22 189.54 347.22 189.54 347.21 189.56 Z" fill="#ffffff" />
<path d="M 346.13 191.79 C 347.35 191.28 347.95 191.54 347.94 192.58 C 346.72 193.09 346.11 192.82 346.13 191.79 Z" fill="#ffffff" /></svg>