<?xml version="1.0" encoding="UTF-8" standalone="no"?>
<!DOCTYPE svg PUBLIC "-//W3C//DTD SVG 1.1//EN" "http://www.w3.org/Graphics/SVG/1.1/DTD/svg11.dtd">
<svg viewBox="0 0 365 138" height="138.0pt" width="365.0pt" xmlns="http://www.w3.org/2000/svg" version="1.1">
<path d="M 0.00 0.00 L 365.00 0.00 L 365.00 138.00 L 0.00 138.00 L 0.00 0.00 Z" fill="#ffffff" />
<path d="M 349.46 2.58 C 352.62 2.09 355.99 2.49 358.71 4.27 C 363.11 6.90 364.61 12.40 363.15 17.16 C 361.29 22.99 354.68 25.80 348.97 24.33 C 342.54 23.02 339.01 16.09 341.04 9.99 C 342.27 6.04 345.59 3.61 349.46 2.58 Z" fill="#231e20" />
<path d="M 71.01 6.89 C 72.12 7.14 74.17 6.69 73.58 8.44 C 62.36 8.46 50.66 10.78 40.43 15.48 C 39.57 17.66 40.18 20.90 40.23 23.26 C 40.49 25.16 40.80 27.06 41.03 28.96 C 41.17 30.73 41.05 32.30 42.03 33.86 C 44.49 34.30 47.38 32.30 49.81 31.72 C 52.84 30.40 56.24 30.45 59.19 29.06 C 61.34 28.88 63.49 28.74 65.63 28.49 C 65.63 27.85 65.57 27.21 65.45 26.59 C 61.88 23.88 58.98 20.57 55.04 18.32 L 53.01 18.80 L 54.53 18.24 C 54.64 16.91 53.83 14.93 55.09 14.04 C 62.98 12.33 70.99 12.33 79.00 12.96 C 94.16 15.00 108.86 22.43 118.38 34.57 C 125.30 44.04 129.65 55.13 129.99 66.92 C 128.38 67.09 128.43 71.87 129.98 72.08 C 128.88 93.61 117.07 116.21 98.12 127.19 C 90.14 131.28 81.03 134.39 72.00 134.49 C 59.73 134.90 46.57 133.14 35.52 127.52 C 23.79 121.57 14.52 111.03 8.45 99.51 C 2.51 87.87 1.33 73.94 3.25 61.17 C 4.40 53.05 6.83 45.25 11.32 38.34 C 19.24 24.83 31.86 14.26 46.99 9.85 C 54.78 7.15 62.80 6.25 71.01 6.89 Z" fill="#221e1f" />
<path d="M 59.95 14.96 C 77.83 13.84 98.17 19.86 110.58 33.29 L 110.58 33.78 C 107.19 32.12 103.64 31.07 100.13 29.75 C 89.98 20.45 75.61 16.82 62.09 17.25 C 60.89 16.61 60.17 15.84 59.95 14.96 Z" fill="#fbf9f5" />
<path d="M 62.09 17.25 C 75.61 16.82 89.98 20.45 100.13 29.75 C 97.49 29.72 94.42 24.85 92.12 26.06 C 91.96 27.19 93.05 27.85 93.62 28.73 C 92.23 28.75 90.85 28.70 89.48 28.40 C 83.89 26.84 77.68 27.83 72.06 27.12 C 68.50 24.17 65.86 20.04 62.09 17.25 Z" fill="#1378c6" />
<path d="M 36.13 17.67 L 37.31 17.57 C 37.66 20.04 37.65 22.56 37.92 25.04 C 35.64 26.37 33.44 27.76 31.59 29.68 C 25.68 33.88 21.01 40.27 17.55 46.59 C 17.01 47.44 17.11 48.01 17.88 48.29 C 17.42 48.38 16.96 48.45 16.50 48.50 C 16.05 44.81 15.80 40.85 16.17 37.16 C 21.61 29.69 28.34 22.70 36.13 17.67 Z" fill="#fdfbfa" />
<path d="M 53.01 18.80 L 55.04 18.32 C 58.98 20.57 61.88 23.88 65.45 26.59 C 65.57 27.21 65.63 27.85 65.63 28.49 C 63.49 28.74 61.34 28.88 59.19 29.06 C 58.73 26.15 55.18 26.63 53.00 26.80 C 48.81 27.11 45.28 29.20 41.03 28.96 C 40.80 27.06 40.49 25.16 40.23 23.26 C 44.58 22.01 48.48 19.71 53.01 18.80 Z" fill="#197cc9" />
<path d="M 37.92 25.04 C 38.33 27.02 38.55 29.00 38.74 31.01 C 38.45 30.44 38.13 29.90 37.78 29.37 C 35.62 29.34 33.80 30.28 31.59 29.68 C 33.44 27.76 35.64 26.37 37.92 25.04 Z" fill="#2b7ba8" />
<path d="M 53.00 26.80 C 55.18 26.63 58.73 26.15 59.19 29.06 C 56.24 30.45 52.84 30.40 49.81 31.72 C 47.38 32.30 44.49 34.30 42.03 33.86 C 41.05 32.30 41.17 30.73 41.03 28.96 C 45.28 29.20 48.81 27.11 53.00 26.80 Z" fill="#48b131" />
<path d="M 37.78 29.37 C 38.13 29.90 38.45 30.44 38.74 31.01 C 38.72 32.40 39.45 34.46 38.65 35.64 C 31.34 39.41 24.24 42.98 17.88 48.29 C 17.11 48.01 17.01 47.44 17.55 46.59 C 21.01 40.27 25.68 33.88 31.59 29.68 C 33.80 30.28 35.62 29.34 37.78 29.37 Z" fill="#4cb133" />
<path d="M 75.33 31.43 C 80.11 30.64 85.20 31.17 90.00 31.65 C 86.06 32.49 83.73 37.75 80.93 40.35 C 79.57 38.56 78.60 36.54 77.23 34.77 C 76.46 33.61 75.44 32.88 75.33 31.43 Z" fill="#1379c5" />
<path d="M 69.78 32.34 C 72.63 35.70 75.89 39.34 77.35 43.56 C 75.94 44.09 74.55 44.65 73.12 45.14 C 71.05 44.98 69.10 45.98 67.13 45.86 C 66.58 44.53 66.81 42.93 66.61 41.51 C 63.19 41.29 62.64 38.14 59.17 37.89 C 59.29 37.35 59.41 36.81 59.53 36.27 C 56.75 35.48 55.29 38.34 53.66 35.84 C 58.16 33.24 64.69 31.66 69.78 32.34 Z" fill="#3690d1" />
<path d="M 90.00 31.65 C 92.45 32.30 96.26 31.98 98.12 33.86 C 97.62 34.46 97.35 35.08 97.30 35.70 C 97.83 36.34 98.29 37.02 98.65 37.72 C 97.82 38.37 96.83 38.93 96.15 39.74 C 97.00 39.91 97.88 40.09 98.77 40.28 C 98.19 40.88 97.56 41.47 96.87 42.06 C 97.14 42.90 97.37 43.75 97.58 44.61 C 96.88 44.99 96.28 45.45 95.79 46.01 C 96.15 46.65 96.79 47.10 97.73 47.34 C 95.67 49.16 93.04 48.48 91.64 51.27 C 89.74 51.39 86.03 52.15 85.37 49.69 C 84.14 46.44 82.34 43.51 80.93 40.35 C 83.73 37.75 86.06 32.49 90.00 31.65 Z" fill="#75c228" />
<path d="M 98.12 33.86 C 102.81 38.90 106.14 44.75 109.06 50.95 C 109.72 52.48 110.56 54.01 110.73 55.67 C 109.07 55.45 107.45 54.71 105.82 54.26 C 101.21 52.83 96.21 52.78 91.64 51.27 C 93.04 48.48 95.67 49.16 97.73 47.34 C 96.79 47.10 96.15 46.65 95.79 46.01 C 96.28 45.45 96.88 44.99 97.58 44.61 C 97.37 43.75 97.14 42.90 96.87 42.06 C 97.56 41.47 98.19 40.88 98.77 40.28 C 97.88 40.09 97.00 39.91 96.15 39.74 C 96.83 38.93 97.82 38.37 98.65 37.72 C 98.29 37.02 97.83 36.34 97.30 35.70 C 97.35 35.08 97.62 34.46 98.12 33.86 Z" fill="#5fba2d" />
<path d="M 103.16 34.23 C 104.89 34.31 106.43 34.77 107.84 35.78 L 107.80 36.88 C 112.99 43.21 117.19 50.97 118.82 59.02 C 117.25 58.08 114.97 57.64 114.40 55.71 C 112.04 49.19 108.92 42.78 104.76 37.22 C 104.21 36.33 103.06 35.34 103.16 34.23 Z" fill="#4cb732" />
<path d="M 53.66 35.84 C 55.29 38.34 56.75 35.48 59.53 36.27 C 59.41 36.81 59.29 37.35 59.17 37.89 C 62.64 38.14 63.19 41.29 66.61 41.51 C 66.81 42.93 66.58 44.53 67.13 45.86 C 69.10 45.98 71.05 44.98 73.12 45.14 C 68.79 46.98 66.02 48.56 66.00 53.78 C 64.86 54.05 63.72 54.24 62.57 54.35 C 60.71 52.96 58.85 52.81 57.70 50.58 C 57.26 50.50 56.81 50.45 56.36 50.41 C 56.09 49.74 55.82 49.07 55.55 48.40 C 53.32 46.89 50.86 45.79 48.09 46.15 C 46.90 46.66 46.26 48.33 45.38 49.26 C 44.57 47.20 43.98 45.12 43.54 42.95 C 44.69 38.48 49.84 37.26 53.66 35.84 Z" fill="#66addf" />
<path d="M 107.84 35.78 C 109.41 36.37 110.95 37.02 112.47 37.73 C 115.20 38.86 117.02 42.09 118.49 44.52 C 124.74 55.46 126.53 69.13 124.58 81.48 C 123.02 87.65 121.71 94.71 118.39 100.17 C 118.80 96.20 119.18 92.11 119.13 88.11 C 120.25 88.08 121.04 87.71 121.50 87.00 C 121.19 84.53 118.25 85.41 119.20 82.13 C 120.68 77.48 120.67 71.79 120.24 66.95 C 120.01 64.75 120.09 63.40 118.18 62.00 C 119.39 62.57 120.68 62.61 122.05 62.13 C 122.29 60.64 119.64 60.13 118.82 59.02 C 117.19 50.97 112.99 43.21 107.80 36.88 L 107.84 35.78 Z" fill="#fcfdfc" />
<path d="M 195.86 37.40 C 203.98 39.69 210.56 45.25 214.27 52.82 C 218.50 61.05 218.83 69.82 218.86 78.89 C 217.25 79.13 215.63 79.08 214.00 79.08 C 197.93 79.02 181.84 79.18 165.77 79.00 L 165.12 79.85 C 166.08 84.35 167.88 88.53 171.50 91.51 C 177.79 96.70 187.36 97.14 194.50 93.49 C 197.04 92.27 198.78 90.43 201.06 88.78 L 201.82 89.04 C 205.23 92.37 208.51 95.82 211.92 99.14 L 211.91 99.79 C 196.76 114.61 168.97 112.74 155.66 96.36 C 145.57 84.14 144.97 64.97 153.87 51.93 C 162.71 38.70 180.84 33.29 195.86 37.40 Z" fill="#231e20" />
<path d="M 264.51 37.37 C 269.44 38.74 275.38 41.68 278.28 46.00 C 275.19 49.81 271.14 53.20 267.76 56.83 L 267.16 56.92 C 262.73 50.50 253.70 48.07 246.80 51.78 C 244.07 53.33 242.60 56.46 243.58 59.52 C 245.07 62.38 248.91 63.74 251.85 64.47 C 259.05 66.29 266.41 67.19 272.93 71.09 C 277.17 73.58 280.01 77.93 280.85 82.75 C 279.66 84.62 279.43 89.51 280.91 91.25 C 280.02 97.57 275.89 102.34 270.50 105.46 C 262.59 109.66 252.73 110.45 243.98 109.37 C 236.39 108.60 229.63 105.09 224.22 99.78 L 224.27 99.23 C 227.81 95.50 231.52 91.85 235.23 88.28 C 236.17 88.41 236.84 89.83 237.58 90.42 C 243.22 96.05 251.60 98.74 259.10 95.13 C 262.37 93.64 264.78 90.13 263.46 86.47 C 262.32 83.44 259.64 82.31 256.84 81.20 C 248.89 78.68 238.81 78.17 232.07 72.89 C 225.95 68.25 224.81 60.21 226.51 53.14 C 227.94 46.80 232.60 42.08 238.35 39.35 C 246.40 35.59 255.97 35.23 264.51 37.37 Z" fill="#241e20" />
<path d="M 323.14 36.58 C 326.40 35.86 331.55 35.61 334.41 37.42 C 333.86 42.85 334.17 48.30 333.65 53.74 C 327.79 52.53 322.22 51.94 316.62 54.62 C 310.50 57.31 306.87 64.52 307.01 71.00 C 307.01 82.63 306.98 94.27 307.03 105.90 C 304.78 107.47 302.59 106.71 300.00 106.84 C 297.21 106.76 294.13 107.28 291.41 106.60 C 290.76 104.21 291.07 101.47 291.04 99.00 C 291.03 80.33 291.06 61.66 291.02 42.99 C 291.15 41.73 290.74 39.92 292.16 39.27 C 296.55 39.20 301.04 39.02 305.42 39.31 C 305.75 40.86 306.48 41.96 305.61 43.53 C 305.03 44.94 306.01 45.43 306.92 46.29 C 307.00 47.15 307.11 48.00 307.25 48.85 C 310.49 42.54 316.07 37.84 323.14 36.58 Z" fill="#231e20" />
<path d="M 289.84 37.89 C 295.50 37.83 301.26 37.80 306.93 37.91 C 307.04 40.70 306.92 43.50 306.92 46.29 C 306.01 45.43 305.03 44.94 305.61 43.53 C 306.48 41.96 305.75 40.86 305.42 39.31 C 301.04 39.02 296.55 39.20 292.16 39.27 C 290.74 39.92 291.15 41.73 291.02 42.99 C 291.06 61.66 291.03 80.33 291.04 99.00 C 291.07 101.47 290.76 104.21 291.41 106.60 C 294.13 107.28 297.21 106.76 300.00 106.84 C 302.59 106.71 304.78 107.47 307.03 105.90 L 306.99 107.85 C 301.38 108.29 295.48 107.96 289.82 108.02 L 289.49 107.07 C 289.67 85.72 289.51 64.36 289.57 43.00 C 289.68 41.34 289.22 39.45 289.84 37.89 Z" fill="#0c0a0a" />
<path d="M 343.28 38.39 L 343.76 38.16 C 345.25 39.69 348.01 38.90 350.00 39.07 C 353.17 38.85 356.69 39.44 359.75 38.71 L 360.26 37.88 L 360.91 38.20 C 360.96 61.35 360.85 84.59 360.97 107.73 L 360.32 108.01 C 359.64 106.52 357.33 107.08 356.00 106.94 C 352.16 107.18 348.03 106.58 344.28 107.23 L 343.81 107.95 L 343.37 107.58 C 343.29 84.53 343.46 61.44 343.28 38.39 Z" fill="#241e20" />
<path d="M 343.76 38.16 C 349.04 37.45 354.87 38.01 360.26 37.88 L 359.75 38.71 C 356.69 39.44 353.17 38.85 350.00 39.07 C 348.01 38.90 345.25 39.69 343.76 38.16 Z" fill="#020202" />
<path d="M 39.75 40.15 C 40.27 42.00 40.51 43.85 40.78 45.75 C 37.66 49.41 35.22 53.54 31.81 57.00 C 30.38 58.14 29.02 58.87 27.23 59.35 C 26.26 58.54 25.24 57.73 24.39 56.79 C 24.14 55.52 25.60 54.24 26.23 53.23 C 27.51 51.79 27.71 50.09 28.43 48.39 C 29.78 47.54 31.52 47.00 32.65 45.87 C 32.56 45.22 32.27 44.58 31.77 43.94 C 34.20 42.57 37.04 40.69 39.75 40.15 Z" fill="#71c02a" />
<path d="M 11.67 44.58 L 12.41 44.38 C 12.33 46.90 12.59 49.40 12.72 51.91 C 12.10 53.57 10.28 54.79 9.42 56.41 C 8.85 56.97 8.11 58.94 7.16 58.59 C 8.20 53.59 9.57 49.25 11.67 44.58 Z" fill="#fffeff" />
<path d="M 31.77 43.94 C 32.27 44.58 32.56 45.22 32.65 45.87 C 31.52 47.00 29.78 47.54 28.43 48.39 C 27.71 50.09 27.51 51.79 26.23 53.23 C 25.60 54.24 24.14 55.52 24.39 56.79 C 25.24 57.73 26.26 58.54 27.23 59.35 C 26.00 59.77 24.72 60.08 23.51 60.57 C 21.91 61.65 21.08 63.40 19.30 64.29 C 18.40 60.98 17.09 56.91 17.53 53.51 C 21.99 49.87 26.63 46.57 31.77 43.94 Z" fill="#5dba31" />
<path d="M 77.35 43.56 C 78.60 45.57 81.34 49.15 80.63 51.54 C 75.62 51.81 70.88 52.67 66.00 53.78 C 66.02 48.56 68.79 46.98 73.12 45.14 C 74.55 44.65 75.94 44.09 77.35 43.56 Z" fill="#83ca25" />
<path d="M 40.78 45.75 C 41.29 47.71 41.74 49.66 42.12 51.65 C 40.71 53.66 39.73 55.39 37.45 56.55 C 36.95 59.48 37.32 62.40 36.33 65.30 C 34.69 66.56 33.06 67.52 31.14 68.31 C 29.47 66.42 30.52 66.18 31.55 64.48 C 29.82 63.60 29.93 63.48 31.46 62.44 C 31.40 60.56 31.38 58.87 31.81 57.00 C 35.22 53.54 37.66 49.41 40.78 45.75 Z" fill="#80bdea" />
<path d="M 48.09 46.15 C 50.86 45.79 53.32 46.89 55.55 48.40 C 55.82 49.07 56.09 49.74 56.36 50.41 C 56.81 50.45 57.26 50.50 57.70 50.58 C 58.85 52.81 60.71 52.96 62.57 54.35 C 57.89 56.19 53.07 57.48 48.56 59.78 C 47.19 56.43 46.17 52.80 45.38 49.26 C 46.26 48.33 46.90 46.66 48.09 46.15 Z" fill="#94cbef" />
<path d="M 200.32 59.73 C 200.80 61.66 201.47 63.99 201.14 65.95 C 189.35 65.99 177.55 65.89 165.76 66.00 L 165.08 65.15 L 165.68 62.81 C 167.17 57.45 170.34 52.77 175.63 50.63 C 184.57 47.08 196.89 49.78 200.32 59.73 Z" fill="#fefefe" />
<path d="M 42.12 51.65 C 43.00 54.74 44.07 57.90 44.55 61.06 C 41.97 62.74 39.14 64.06 36.33 65.30 C 37.32 62.40 36.95 59.48 37.45 56.55 C 39.73 55.39 40.71 53.66 42.12 51.65 Z" fill="#99ceef" />
<path d="M 82.92 56.02 C 83.40 56.58 83.77 57.24 84.01 57.99 C 86.16 64.16 88.81 70.52 90.07 76.92 L 89.85 77.77 C 87.66 78.01 85.37 77.88 83.17 77.82 C 81.69 75.68 80.17 73.93 77.36 73.88 C 75.29 73.13 73.23 73.29 71.07 73.26 C 69.76 72.91 68.45 72.56 67.12 72.26 C 64.73 69.56 64.58 66.36 64.83 62.92 C 65.70 61.41 65.80 59.82 66.00 58.14 C 71.34 56.63 77.39 55.54 82.92 56.02 Z" fill="#68bd2b" />
<path d="M 88.13 56.01 L 89.00 55.61 C 94.26 55.88 99.32 56.32 104.40 57.81 C 104.44 61.08 100.64 61.09 98.28 61.47 C 99.11 61.77 99.96 61.98 100.86 62.12 C 99.97 63.82 97.03 65.12 95.55 66.55 C 94.69 68.47 95.33 71.03 93.31 72.18 C 91.83 66.75 89.63 61.35 88.13 56.01 Z" fill="#5db92e" />
<path d="M 13.09 57.29 C 12.92 61.55 11.27 65.58 11.65 69.97 C 11.66 73.37 11.55 77.00 12.33 80.32 C 11.48 82.91 9.95 84.46 13.19 86.18 C 16.07 93.90 18.97 101.11 24.82 107.16 C 24.54 107.93 24.39 108.69 24.37 109.44 C 25.21 109.46 26.04 109.49 26.88 109.54 C 30.96 113.97 36.29 117.86 41.77 120.36 C 44.10 121.61 47.08 123.34 49.78 123.11 C 48.88 124.42 47.88 125.68 46.76 126.81 C 36.42 123.96 26.45 116.57 19.84 108.12 C 10.26 96.48 6.62 80.81 6.87 66.00 C 7.08 64.39 6.60 61.95 7.41 60.59 C 10.06 60.39 10.99 58.43 13.09 57.29 Z" fill="#fcfbf8" />
<path d="M 13.09 57.29 L 13.48 57.42 C 13.73 62.45 15.21 67.62 16.51 72.47 C 16.84 74.30 18.90 76.88 16.61 78.17 C 16.15 75.71 13.69 71.49 11.65 69.97 C 11.27 65.58 12.92 61.55 13.09 57.29 Z" fill="#3ab929" />
<path d="M 31.81 57.00 C 31.38 58.87 31.40 60.56 31.46 62.44 C 29.93 63.48 29.82 63.60 31.55 64.48 C 30.52 66.18 29.47 66.42 31.14 68.31 C 28.38 70.72 25.01 72.12 22.30 74.66 C 20.95 71.28 20.11 67.82 19.30 64.29 C 21.08 63.40 21.91 61.65 23.51 60.57 C 24.72 60.08 26.00 59.77 27.23 59.35 C 29.02 58.87 30.38 58.14 31.81 57.00 Z" fill="#58a5dc" />
<path d="M 66.00 58.14 C 65.80 59.82 65.70 61.41 64.83 62.92 L 63.15 63.26 C 63.97 65.03 64.52 66.50 63.19 68.23 C 61.46 70.50 60.19 73.18 58.24 75.25 C 56.68 76.61 55.83 74.42 54.14 75.96 C 53.33 74.05 52.58 72.15 51.99 70.17 C 52.54 69.69 53.13 69.37 53.75 69.20 C 54.09 70.21 54.45 70.64 54.82 70.50 C 55.97 68.81 56.71 66.71 57.83 64.93 C 58.13 63.79 59.49 61.33 57.94 60.61 C 60.56 59.62 63.28 58.85 66.00 58.14 Z" fill="#83c1e9" />
<path d="M 104.40 57.81 C 107.07 58.14 109.52 59.09 111.97 60.14 L 112.82 61.05 C 114.62 66.05 115.60 71.37 116.07 76.65 C 114.72 78.18 113.92 80.18 112.84 81.91 C 106.89 79.84 100.35 79.31 94.50 77.58 C 94.04 75.80 93.71 73.98 93.31 72.18 C 95.33 71.03 94.69 68.47 95.55 66.55 C 97.03 65.12 99.97 63.82 100.86 62.12 C 99.96 61.98 99.11 61.77 98.28 61.47 C 100.64 61.09 104.44 61.08 104.40 57.81 Z" fill="#44ae35" />
<path d="M 111.97 60.14 L 112.60 60.39 L 112.82 61.05 L 111.97 60.14 Z" fill="#617573" />
<path d="M 200.32 59.73 L 201.84 60.06 C 202.39 62.16 202.56 64.73 201.93 66.83 C 201.01 67.15 200.03 67.28 199.00 67.21 C 188.33 67.12 177.66 67.18 166.99 67.18 C 165.52 67.08 164.18 67.33 163.42 65.78 C 163.24 64.17 164.08 63.11 165.68 62.81 L 165.08 65.15 L 165.76 66.00 C 177.55 65.89 189.35 65.99 201.14 65.95 C 201.47 63.99 200.80 61.66 200.32 59.73 Z" fill="#131212" />
<path d="M 57.94 60.61 C 59.49 61.33 58.13 63.79 57.83 64.93 C 56.71 66.71 55.97 68.81 54.82 70.50 C 54.45 70.64 54.09 70.21 53.75 69.20 C 53.13 69.37 52.54 69.69 51.99 70.17 C 51.36 68.22 50.20 66.19 50.09 64.14 C 52.32 62.46 55.37 61.70 57.94 60.61 Z" fill="#a1d5f3" />
<path d="M 116.30 61.16 C 116.96 61.32 117.59 61.60 118.18 62.00 C 120.09 63.40 120.01 64.75 120.24 66.95 C 120.20 69.30 119.81 70.33 118.38 72.13 C 117.85 68.44 116.95 64.82 116.30 61.16 Z" fill="#2d9a35" />
<path d="M 63.15 63.26 L 64.83 62.92 C 64.58 66.36 64.73 69.56 67.12 72.26 C 66.11 76.48 61.56 76.45 59.92 80.65 C 59.33 80.54 58.74 80.44 58.16 80.34 C 57.70 81.02 57.26 81.71 56.84 82.41 C 55.69 80.35 54.94 78.16 54.14 75.96 C 55.83 74.42 56.68 76.61 58.24 75.25 C 60.19 73.18 61.46 70.50 63.19 68.23 C 64.52 66.50 63.97 65.03 63.15 63.26 Z" fill="#6db1e0" />
<path d="M 45.86 66.12 C 46.96 66.96 46.94 69.54 47.58 70.84 C 44.81 73.43 44.08 70.30 41.75 68.93 L 41.69 68.01 C 42.96 67.46 44.45 65.96 45.86 66.12 Z" fill="#a3d9f9" />
<path d="M 120.24 66.95 C 120.67 71.79 120.68 77.48 119.20 82.13 C 119.30 78.69 118.80 75.51 118.38 72.13 C 119.81 70.33 120.20 69.30 120.24 66.95 Z" fill="#639bc7" />
<path d="M 129.99 66.92 C 130.04 68.64 130.07 70.37 129.98 72.08 C 128.43 71.87 128.38 67.09 129.99 66.92 Z" fill="#010101" />
<path d="M 41.69 68.01 L 41.75 68.93 C 44.08 70.30 44.81 73.43 47.58 70.84 C 48.89 73.31 49.71 76.12 50.44 78.81 C 48.31 80.34 45.58 79.67 43.12 79.58 C 41.00 79.57 40.59 77.91 39.03 76.87 C 37.68 76.05 37.05 74.70 35.97 73.60 C 34.88 73.66 32.00 75.83 31.69 73.95 C 34.81 71.69 38.22 69.69 41.69 68.01 Z" fill="#80bee8" />
<path d="M 11.65 69.97 C 13.69 71.49 16.15 75.71 16.61 78.17 C 15.26 79.29 14.21 80.36 12.33 80.32 C 11.55 77.00 11.66 73.37 11.65 69.97 Z" fill="#157bc4" />
<path d="M 67.12 72.26 C 68.45 72.56 69.76 72.91 71.07 73.26 C 70.42 74.54 69.56 75.47 68.54 76.46 C 67.70 77.73 67.48 79.43 67.02 80.88 C 64.07 81.93 61.10 83.09 58.10 83.96 C 57.50 83.82 57.08 83.30 56.84 82.41 C 57.26 81.71 57.70 81.02 58.16 80.34 C 58.74 80.44 59.33 80.54 59.92 80.65 C 61.56 76.45 66.11 76.48 67.12 72.26 Z" fill="#56a5db" />
<path d="M 71.07 73.26 C 73.23 73.29 75.29 73.13 77.36 73.88 C 76.45 74.95 75.31 75.69 74.24 76.60 C 75.46 76.78 76.68 76.96 77.90 77.14 C 77.61 77.90 76.92 78.47 75.84 78.85 C 72.89 79.47 69.94 80.11 67.02 80.88 C 67.48 79.43 67.70 77.73 68.54 76.46 C 69.56 75.47 70.42 74.54 71.07 73.26 Z" fill="#4196d4" />
<path d="M 31.69 73.95 C 32.00 75.83 34.88 73.66 35.97 73.60 C 37.05 74.70 37.68 76.05 39.03 76.87 C 40.59 77.91 41.00 79.57 43.12 79.58 C 45.58 79.67 48.31 80.34 50.44 78.81 C 51.81 81.04 52.60 83.62 53.16 86.16 C 50.93 86.75 49.05 85.77 46.90 85.24 C 43.28 84.32 39.62 83.52 35.95 82.81 C 35.70 82.35 35.50 81.87 35.37 81.38 C 35.86 81.04 36.35 80.72 36.85 80.41 C 35.33 80.22 33.80 80.05 32.29 79.79 C 32.75 79.14 33.31 78.55 33.99 78.03 C 33.39 76.45 30.92 76.60 29.81 75.19 C 30.43 74.77 31.06 74.35 31.69 73.95 Z" fill="#63abe1" />
<path d="M 77.36 73.88 C 80.17 73.93 81.69 75.68 83.17 77.82 C 80.72 78.32 78.33 78.66 75.84 78.85 C 76.92 78.47 77.61 77.90 77.90 77.14 C 76.68 76.96 75.46 76.78 74.24 76.60 C 75.31 75.69 76.45 74.95 77.36 73.88 Z" fill="#2b82c1" />
<path d="M 29.81 75.19 C 30.92 76.60 33.39 76.45 33.99 78.03 C 33.31 78.55 32.75 79.14 32.29 79.79 C 33.80 80.05 35.33 80.22 36.85 80.41 C 36.35 80.72 35.86 81.04 35.37 81.38 C 35.50 81.87 35.70 82.35 35.95 82.81 C 33.76 82.84 31.74 82.73 29.78 83.88 C 28.53 84.02 27.27 84.15 26.02 84.26 C 25.36 82.62 24.61 80.97 24.22 79.25 C 25.96 77.72 27.84 76.41 29.81 75.19 Z" fill="#489bd7" />
<path d="M 116.07 76.65 C 116.71 78.67 116.87 80.76 116.80 82.86 C 115.25 83.42 114.16 82.57 112.84 81.91 C 113.92 80.18 114.72 78.18 116.07 76.65 Z" fill="#186994" />
<path d="M 91.55 82.42 C 93.25 87.07 93.79 92.18 94.71 97.04 C 94.78 99.24 95.81 102.62 94.51 104.51 C 92.75 105.04 90.79 105.00 88.97 105.23 C 87.85 99.47 89.68 94.52 90.30 88.97 C 88.99 86.74 87.30 84.70 85.88 82.54 C 87.76 82.18 89.65 82.06 91.55 82.42 Z" fill="#31a73a" />
<path d="M 18.96 82.63 C 21.09 84.08 21.72 87.67 22.94 89.90 C 22.11 89.16 21.63 88.31 20.40 88.38 C 18.55 94.61 23.14 99.59 28.85 101.12 C 30.63 103.18 25.92 105.72 24.82 107.16 C 18.97 101.11 16.07 93.90 13.19 86.18 C 15.38 85.36 16.98 83.78 18.96 82.63 Z" fill="#1179c6" />
<path d="M 35.95 82.81 C 39.62 83.52 43.28 84.32 46.90 85.24 C 49.05 85.77 50.93 86.75 53.16 86.16 C 49.59 88.64 45.62 90.70 41.97 93.10 C 39.36 91.69 35.94 92.26 34.43 89.75 C 34.77 88.81 34.89 87.98 34.77 87.27 C 33.27 86.46 31.75 86.43 30.10 86.50 C 29.97 85.63 29.87 84.76 29.78 83.88 C 31.74 82.73 33.76 82.84 35.95 82.81 Z" fill="#5ab630" />
<path d="M 85.88 82.54 C 87.30 84.70 88.99 86.74 90.30 88.97 C 89.68 94.52 87.85 99.47 88.97 105.23 C 84.54 105.94 80.21 106.27 75.99 107.92 C 74.79 108.11 72.52 109.57 71.53 108.50 C 68.97 103.86 65.52 99.80 63.23 95.04 C 65.39 94.74 66.66 92.57 68.62 91.56 C 70.87 90.44 72.11 88.49 73.98 86.93 C 75.02 85.89 74.75 85.32 74.06 84.22 C 77.93 83.12 81.89 82.92 85.88 82.54 Z" fill="#1578c7" />
<path d="M 96.31 83.19 C 101.24 82.29 107.16 84.52 112.01 85.61 C 109.99 87.28 109.65 90.56 109.15 93.00 C 108.92 96.63 108.87 100.68 109.33 104.29 C 108.66 105.20 108.43 106.07 108.62 106.90 C 105.58 105.87 102.36 105.71 99.32 104.76 C 98.86 101.14 98.91 97.43 98.29 93.83 C 97.40 90.33 96.86 86.76 96.31 83.19 Z" fill="#2aa33b" />
<path d="M 280.85 82.75 C 281.36 85.52 281.35 88.46 280.91 91.25 C 279.43 89.51 279.66 84.62 280.85 82.75 Z" fill="#040404" />
<path d="M 26.02 84.26 C 27.27 84.15 28.53 84.02 29.78 83.88 C 29.87 84.76 29.97 85.63 30.10 86.50 C 31.75 86.43 33.27 86.46 34.77 87.27 C 34.89 87.98 34.77 88.81 34.43 89.75 C 35.94 92.26 39.36 91.69 41.97 93.10 C 40.05 94.51 38.04 95.77 36.19 97.25 C 35.41 97.70 34.27 99.19 33.33 98.65 C 30.12 94.55 27.99 88.97 26.02 84.26 Z" fill="#48af34" />
<path d="M 74.06 84.22 C 74.75 85.32 75.02 85.89 73.98 86.93 C 72.11 88.49 70.87 90.44 68.62 91.56 C 66.66 92.57 65.39 94.74 63.23 95.04 C 62.46 93.05 59.78 90.70 60.42 88.52 C 64.95 86.96 69.33 85.20 74.06 84.22 Z" fill="#2c87cd" />
<path d="M 112.01 85.61 C 113.43 86.03 114.82 86.52 116.19 87.05 C 116.81 89.01 116.99 91.05 116.12 92.97 C 114.25 96.90 112.19 100.97 109.33 104.29 C 108.87 100.68 108.92 96.63 109.15 93.00 C 109.65 90.56 109.99 87.28 112.01 85.61 Z" fill="#1377ca" />
<path d="M 116.19 87.05 C 116.99 88.48 116.62 90.53 117.04 92.13 C 116.77 95.83 116.83 99.56 116.69 103.28 C 116.16 105.10 115.03 106.50 113.80 107.90 C 112.15 108.22 110.27 107.14 108.62 106.90 C 108.43 106.07 108.66 105.20 109.33 104.29 C 112.19 100.97 114.25 96.90 116.12 92.97 C 116.99 91.05 116.81 89.01 116.19 87.05 Z" fill="#fdfcfb" />
<path d="M 20.40 88.38 C 21.63 88.31 22.11 89.16 22.94 89.90 C 24.61 93.81 26.82 97.40 28.85 101.12 C 23.14 99.59 18.55 94.61 20.40 88.38 Z" fill="#32a430" />
<path d="M 118.07 88.17 L 119.13 88.11 C 119.18 92.11 118.80 96.20 118.39 100.17 C 118.20 101.76 117.63 102.79 116.69 103.28 C 116.83 99.56 116.77 95.83 117.04 92.13 C 117.46 90.83 117.72 89.49 118.07 88.17 Z" fill="#030306" />
<path d="M 55.82 91.18 C 57.54 93.45 58.71 96.26 60.12 98.75 C 59.60 99.76 59.13 100.79 58.71 101.83 C 57.44 102.80 56.57 104.99 55.57 102.36 C 53.13 101.52 49.99 102.30 47.37 101.88 C 47.49 101.33 47.61 100.79 47.71 100.24 C 45.71 99.25 43.36 99.74 41.63 99.02 C 45.75 95.77 50.76 92.58 55.82 91.18 Z" fill="#4db231" />
<path d="M 41.63 99.02 C 43.36 99.74 45.71 99.25 47.71 100.24 C 47.61 100.79 47.49 101.33 47.37 101.88 C 49.99 102.30 53.13 101.52 55.57 102.36 C 56.57 104.99 57.44 102.80 58.71 101.83 C 57.95 105.18 56.45 108.30 55.89 111.75 C 54.88 112.02 53.91 112.44 52.97 113.00 C 51.40 110.96 51.01 110.10 48.27 109.68 C 48.07 108.24 47.97 106.78 47.76 105.33 C 45.95 106.67 46.62 107.89 46.88 109.74 C 44.48 108.81 42.35 106.34 40.67 104.43 C 38.76 103.76 37.92 104.42 37.62 101.96 C 38.89 100.86 40.20 99.90 41.63 99.02 Z" fill="#3cab36" />
<path d="M 60.12 98.75 C 62.37 102.72 66.03 106.66 67.35 110.97 C 63.76 113.46 59.75 115.56 56.13 118.14 C 56.03 116.01 55.99 113.88 55.89 111.75 C 56.45 108.30 57.95 105.18 58.71 101.83 C 59.13 100.79 59.60 99.76 60.12 98.75 Z" fill="#1479c4" />
<path d="M 37.62 101.96 C 37.92 104.42 38.76 103.76 40.67 104.43 C 42.35 106.34 44.48 108.81 46.88 109.74 C 46.62 107.89 45.95 106.67 47.76 105.33 C 47.97 106.78 48.07 108.24 48.27 109.68 C 51.01 110.10 51.40 110.96 52.97 113.00 C 53.91 112.44 54.88 112.02 55.89 111.75 C 55.99 113.88 56.03 116.01 56.13 118.14 C 55.08 119.03 53.85 120.87 52.33 119.65 C 47.34 115.45 42.79 110.39 38.41 105.55 C 37.54 104.54 36.46 103.21 37.62 101.96 Z" fill="#24a23a" />
<path d="M 32.93 106.07 C 35.61 109.05 38.16 112.05 40.95 114.96 C 41.12 116.78 41.58 118.55 41.77 120.36 C 36.29 117.86 30.96 113.97 26.88 109.54 C 29.21 109.20 30.75 106.48 32.93 106.07 Z" fill="#1479c9" />
<path d="M 344.28 107.23 C 348.03 106.58 352.16 107.18 356.00 106.94 C 357.33 107.08 359.64 106.52 360.32 108.01 C 354.82 108.03 349.30 108.13 343.81 107.95 L 344.28 107.23 Z" fill="#030000" />
<path d="M 95.79 109.15 C 96.11 111.74 95.94 114.47 95.89 117.09 C 95.08 117.50 94.28 117.30 93.48 116.51 C 91.34 114.58 90.94 112.08 89.89 109.53 C 91.62 108.75 93.96 108.75 95.79 109.15 Z" fill="#269c3c" />
<path d="M 99.44 109.38 C 101.02 108.47 103.36 109.17 105.11 109.22 C 103.67 111.40 101.92 112.82 99.70 114.13 C 99.11 112.51 99.12 111.06 99.44 109.38 Z" fill="#23a03e" />
<path d="M 105.11 109.22 C 107.48 109.02 109.58 109.70 111.85 110.18 C 108.99 114.28 104.02 117.76 99.96 120.65 L 98.99 120.32 C 99.17 118.35 98.78 115.93 99.70 114.13 C 101.92 112.82 103.67 111.40 105.11 109.22 Z" fill="#fcfcfc" />
<path d="M 89.89 109.53 C 90.94 112.08 91.34 114.58 93.48 116.51 C 94.28 117.30 95.08 117.50 95.89 117.09 L 95.87 117.75 C 91.39 119.33 87.41 122.40 82.59 123.44 C 79.97 120.73 77.92 118.13 75.83 115.00 C 74.71 114.81 74.06 116.05 73.20 116.61 C 74.07 115.25 74.76 112.99 76.13 112.18 C 80.78 110.91 85.00 109.45 89.89 109.53 Z" fill="#1578c7" />
<path d="M 40.95 114.96 C 43.22 116.74 45.10 118.90 47.45 120.59 C 48.35 121.34 49.40 121.94 49.78 123.11 C 47.08 123.34 44.10 121.61 41.77 120.36 C 41.58 118.55 41.12 116.78 40.95 114.96 Z" fill="#209046" />
<path d="M 68.39 115.43 C 69.58 114.66 70.90 115.22 71.63 116.31 C 73.64 119.21 75.63 122.13 77.73 124.96 C 71.97 126.29 66.34 125.97 60.50 126.21 C 59.17 125.25 57.35 124.43 56.50 123.01 C 60.15 119.94 64.08 117.46 68.39 115.43 Z" fill="#1378c7" />
<path d="M 95.87 117.75 C 95.69 119.48 96.04 121.44 95.43 123.07 C 92.72 124.52 88.93 126.31 86.01 127.23 C 84.49 126.69 83.32 124.82 82.59 123.44 C 87.41 122.40 91.39 119.33 95.87 117.75 Z" fill="#fcfbf6" />
<path d="M 53.65 125.49 C 55.65 126.79 58.12 127.92 59.71 129.71 C 56.93 129.71 54.04 129.13 51.31 128.64 C 51.22 127.50 52.62 125.69 53.65 125.49 Z" fill="#b3b3b3" />
<path d="M 77.73 124.96 C 78.34 126.06 80.28 127.48 79.94 128.80 C 75.34 129.42 70.79 129.98 66.14 129.86 C 64.07 129.38 62.10 127.57 60.50 126.21 C 66.34 125.97 71.97 126.29 77.73 124.96 Z" fill="#f6fefb" /></svg>