<?xml version="1.0" encoding="UTF-8" standalone="no"?>
<!DOCTYPE svg PUBLIC "-//W3C//DTD SVG 1.1//EN" "http://www.w3.org/Graphics/SVG/1.1/DTD/svg11.dtd">
<svg viewBox="0 0 192 192" height="192.0pt" width="192.0pt" xmlns="http://www.w3.org/2000/svg" version="1.1">
<path d="M 0.00 0.00 L 192.00 0.00 L 192.00 192.00 L 0.00 192.00 L 0.00 0.00 Z" fill="#0074c1" />
<path d="M 48.12 83.86 C 67.08 83.89 86.04 83.86 105.00 83.88 C 109.47 83.92 113.85 83.61 118.29 84.27 C 118.16 90.01 118.24 95.74 118.22 101.48 C 109.78 101.65 101.33 101.48 92.89 101.58 C 92.83 127.76 92.96 153.93 92.82 180.11 C 86.15 179.86 79.46 180.24 72.80 179.80 C 72.84 153.72 72.83 127.63 72.80 101.55 C 64.52 101.55 56.23 101.57 47.95 101.54 C 48.10 95.65 47.86 89.75 48.12 83.86 Z" fill="#ffffff" />
<path d="M 147.99 84.37 C 157.34 83.50 167.46 84.05 176.26 87.59 C 176.20 93.99 176.24 100.40 176.23 106.80 C 168.47 101.96 159.58 99.39 150.43 100.86 C 146.00 101.82 141.62 104.01 140.77 108.91 C 140.26 113.16 143.35 116.23 146.55 118.44 C 153.37 122.91 161.35 125.10 168.10 129.88 C 174.06 133.89 178.58 139.69 179.57 146.97 C 180.43 154.41 180.04 162.21 175.36 168.41 C 170.22 175.35 162.30 178.40 153.96 179.42 C 142.51 180.58 131.01 180.01 120.45 175.05 C 120.28 168.09 120.38 161.13 120.39 154.18 C 128.63 161.26 139.32 165.03 150.18 163.03 C 153.66 162.19 157.52 160.45 158.78 156.80 C 160.26 153.01 158.26 149.14 155.39 146.66 C 148.20 140.64 138.64 139.01 130.92 133.11 C 125.40 129.16 121.40 123.31 120.41 116.52 C 119.60 109.68 120.02 102.86 123.96 97.00 C 129.10 88.91 138.82 85.27 147.99 84.37 Z" fill="#ffffff" /></svg>