<?xml version="1.0" encoding="UTF-8" standalone="no"?>
<!DOCTYPE svg PUBLIC "-//W3C//DTD SVG 1.1//EN" "http://www.w3.org/Graphics/SVG/1.1/DTD/svg11.dtd">
<svg viewBox="0 0 454 111" height="111.0pt" width="454.0pt" xmlns="http://www.w3.org/2000/svg" version="1.1">
<path d="M 0.00 0.00 L 355.18 0.00 C 350.82 1.01 348.72 5.04 350.84 9.08 C 353.24 12.93 358.68 12.86 361.07 9.04 C 363.34 5.51 361.30 1.71 357.72 0.23 L 356.88 0.00 L 454.00 0.00 L 454.00 111.00 L 48.58 111.00 C 57.66 109.67 62.54 102.85 66.01 95.02 C 75.23 72.26 84.13 49.31 93.33 26.55 C 90.17 26.55 87.01 26.54 83.84 26.53 C 79.66 37.53 75.71 48.61 71.59 59.63 C 69.81 64.87 67.53 69.86 66.25 75.26 C 60.61 58.76 54.85 42.93 49.19 26.53 C 45.79 26.55 42.40 26.55 39.00 26.53 C 46.55 45.64 53.99 64.79 61.53 83.90 C 59.82 87.50 58.43 91.23 56.83 94.87 C 55.37 98.04 53.58 100.88 50.25 102.31 C 47.34 103.55 43.94 102.78 40.93 102.26 C 40.96 104.91 40.97 107.56 40.96 110.20 C 42.31 110.48 43.65 110.77 45.01 111.00 L 0.00 111.00 L 0.00 0.00 Z" fill="#ffffff" />
<path d="M 355.18 0.00 L 356.88 0.00 L 357.72 0.23 C 361.30 1.71 363.34 5.51 361.07 9.04 C 358.68 12.86 353.24 12.93 350.84 9.08 C 348.72 5.04 350.82 1.01 355.18 0.00 Z" fill="#007acc" />
<path d="M 237.99 2.50 C 244.64 2.09 251.25 2.26 257.45 4.95 C 257.41 8.48 257.44 12.01 257.50 15.53 C 251.81 11.63 244.80 10.15 237.99 10.84 C 234.31 11.24 230.05 12.60 227.60 15.52 C 223.44 20.46 224.45 28.54 229.46 32.55 C 236.32 38.13 245.26 41.06 252.09 46.88 C 255.74 49.95 259.00 54.27 260.08 58.97 C 260.92 64.28 260.70 70.09 257.82 74.79 C 254.62 80.24 249.05 83.18 243.02 84.47 C 234.04 86.36 224.08 85.00 215.89 80.86 C 215.88 77.25 215.85 73.64 215.85 70.03 C 221.31 73.78 227.33 76.38 234.00 76.81 C 238.49 77.08 244.00 76.66 247.60 73.66 C 251.35 70.69 252.28 65.41 251.17 60.97 C 250.14 57.15 247.02 54.35 243.87 52.19 C 237.74 48.09 230.47 44.94 224.56 40.40 C 220.53 37.19 217.38 33.19 216.46 28.00 C 215.76 22.75 216.04 17.53 218.94 12.95 C 223.15 6.37 230.42 3.22 237.99 2.50 Z" fill="#007acc" />
<path d="M 0.76 3.60 C 19.35 3.57 37.94 3.65 56.53 3.56 C 56.54 6.37 56.58 9.18 56.59 11.99 C 48.83 12.20 41.06 12.03 33.29 12.08 C 33.30 36.02 33.31 59.95 33.29 83.88 C 30.17 83.81 27.05 83.78 23.94 83.83 C 23.93 59.91 23.94 36.00 23.93 12.08 C 16.22 12.08 8.50 12.09 0.78 12.07 C 0.78 9.25 0.77 6.43 0.76 3.60 Z" fill="#007acc" />
<path d="M 438.79 9.63 C 438.58 15.22 438.80 20.81 438.63 26.40 C 443.50 26.69 448.35 26.49 453.24 26.55 C 453.23 29.15 453.23 31.75 453.23 34.34 C 448.45 34.32 443.67 34.45 438.91 34.24 C 438.41 44.13 438.86 54.09 438.67 64.00 C 438.73 67.43 438.49 72.35 440.88 75.10 C 443.94 78.52 449.56 77.78 453.28 75.85 C 453.25 78.25 453.34 80.69 453.13 83.08 C 452.45 84.07 450.86 84.39 449.76 84.70 C 444.33 85.77 437.87 85.35 433.69 81.31 C 430.98 78.34 429.70 73.97 429.72 70.01 C 429.70 58.12 429.73 46.21 429.71 34.33 C 426.37 34.36 423.04 34.35 419.70 34.35 C 419.70 31.75 419.70 29.14 419.71 26.54 C 423.05 26.55 426.39 26.54 429.74 26.55 C 429.69 21.93 429.79 17.32 429.63 12.70 C 432.65 11.52 435.66 10.50 438.79 9.63 Z" fill="#007acc" />
<path d="M 133.50 25.72 C 139.89 26.80 145.28 31.12 148.21 36.82 C 151.75 43.46 152.29 51.67 151.55 59.02 C 151.00 66.00 148.25 73.26 143.34 78.35 C 137.20 84.66 127.18 86.87 118.87 84.23 C 114.15 82.71 111.15 79.36 108.14 75.63 C 108.34 87.18 108.18 98.73 108.23 110.28 C 105.19 110.29 102.15 110.28 99.11 110.27 C 99.19 82.37 99.18 54.47 99.11 26.57 C 102.15 26.55 105.19 26.53 108.24 26.55 C 108.22 29.91 108.23 33.27 108.22 36.63 C 110.71 33.47 112.83 30.43 116.42 28.39 C 121.58 25.18 127.62 24.82 133.50 25.72 Z" fill="#007acc" />
<path d="M 202.40 33.57 C 207.84 40.87 207.62 48.71 207.87 57.35 C 194.30 57.55 180.71 57.38 167.13 57.44 C 167.38 61.81 167.95 65.90 170.28 69.71 C 172.67 73.57 176.50 76.23 180.97 77.08 C 189.17 78.87 197.23 76.20 203.83 71.31 C 203.74 74.16 203.71 77.02 203.75 79.87 C 196.39 84.77 187.63 85.91 178.97 84.98 C 173.04 84.01 167.33 81.22 163.70 76.30 C 158.06 69.24 157.07 58.66 158.07 50.00 C 159.20 39.68 165.76 30.23 175.65 26.61 C 184.94 23.71 196.37 25.22 202.40 33.57 Z" fill="#007acc" />
<path d="M 288.98 25.96 C 295.98 24.68 303.26 25.13 309.83 28.00 C 309.80 31.09 309.79 34.18 309.84 37.27 C 304.46 33.87 298.36 32.07 291.98 33.30 C 286.15 34.28 281.27 38.42 278.58 43.57 C 275.84 48.94 275.71 55.13 276.35 61.00 C 277.16 66.93 280.43 72.30 285.65 75.32 C 293.59 79.45 302.69 77.86 309.74 72.72 C 309.77 75.65 309.68 78.58 309.63 81.51 C 300.76 86.04 289.75 86.85 280.73 82.30 C 274.25 78.95 269.36 72.58 267.65 65.50 C 265.94 58.55 266.30 50.60 268.60 43.81 C 271.72 34.77 279.58 27.83 288.98 25.96 Z" fill="#007acc" />
<path d="M 345.24 25.99 C 345.23 29.19 345.28 32.39 345.35 35.58 C 341.10 33.47 335.20 33.12 331.43 36.39 C 326.43 40.47 324.74 46.71 324.49 52.93 C 324.27 63.24 324.48 73.57 324.38 83.89 C 321.34 83.80 318.30 83.79 315.26 83.88 C 315.22 64.79 315.37 45.70 315.18 26.62 C 318.27 26.56 321.34 26.50 324.43 26.54 C 324.42 30.48 324.32 34.43 324.46 38.37 C 326.66 34.41 328.00 30.62 332.05 28.05 C 336.13 25.06 340.48 25.43 345.24 25.99 Z" fill="#007acc" />
<path d="M 388.13 26.19 C 394.35 24.61 402.00 24.89 407.52 28.48 C 411.85 31.11 415.01 35.76 416.70 40.48 C 419.40 48.68 419.32 57.83 417.07 66.13 C 415.06 73.38 410.24 80.21 403.16 83.21 C 397.21 85.77 389.57 86.20 383.65 83.35 C 379.89 81.61 377.60 78.69 375.01 75.59 C 375.06 87.15 375.03 98.71 375.03 110.27 C 371.99 110.29 368.95 110.29 365.91 110.27 C 365.90 82.36 365.90 54.45 365.91 26.54 C 368.96 26.54 372.00 26.54 375.05 26.54 C 375.03 29.94 375.03 33.34 375.02 36.74 C 378.46 31.94 382.30 27.92 388.13 26.19 Z" fill="#007acc" />
<path d="M 39.00 26.53 C 42.40 26.55 45.79 26.55 49.19 26.53 C 54.85 42.93 60.61 58.76 66.25 75.26 C 67.53 69.86 69.81 64.87 71.59 59.63 C 75.71 48.61 79.66 37.53 83.84 26.53 C 87.01 26.54 90.17 26.55 93.33 26.55 C 84.13 49.31 75.23 72.26 66.01 95.02 C 62.54 102.85 57.66 109.67 48.58 111.00 L 45.01 111.00 C 43.65 110.77 42.31 110.48 40.96 110.20 C 40.97 107.56 40.96 104.91 40.93 102.26 C 43.94 102.78 47.34 103.55 50.25 102.31 C 53.58 100.88 55.37 98.04 56.83 94.87 C 58.43 91.23 59.82 87.50 61.53 83.90 C 53.99 64.79 46.55 45.64 39.00 26.53 Z" fill="#007acc" />
<path d="M 351.20 26.56 C 354.22 26.55 357.23 26.54 360.25 26.53 C 360.25 45.65 360.24 64.76 360.25 83.88 C 357.26 83.80 354.26 83.79 351.26 83.88 C 351.23 64.77 351.36 45.66 351.20 26.56 Z" fill="#007acc" />
<path d="M 133.44 34.59 C 137.69 36.69 140.37 41.05 141.61 45.50 C 143.03 51.04 142.80 56.92 141.61 62.49 C 140.50 67.13 138.38 71.55 134.52 74.51 C 127.56 79.67 116.86 78.45 111.67 71.34 C 108.06 66.69 108.01 61.62 108.21 56.00 C 107.94 49.71 108.50 43.78 112.80 38.83 C 117.59 32.86 126.68 31.27 133.44 34.59 Z" fill="#ffffff" />
<path d="M 191.99 35.02 C 196.94 38.45 198.46 44.12 198.29 49.89 C 187.88 49.50 177.42 50.09 167.02 49.58 C 168.30 45.17 169.36 41.05 172.75 37.73 C 177.45 32.42 186.01 31.37 191.99 35.02 Z" fill="#ffffff" />
<path d="M 387.51 33.65 C 393.10 32.12 399.62 32.86 403.81 37.17 C 408.05 41.35 409.30 47.23 409.37 53.00 C 409.47 59.42 408.29 66.94 404.00 72.01 C 400.14 76.96 392.88 78.75 386.98 77.04 C 379.96 75.35 374.90 68.11 375.05 61.00 C 375.07 56.42 374.73 51.66 375.54 47.14 C 376.89 41.17 381.42 35.28 387.51 33.65 Z" fill="#ffffff" /></svg>